<svg viewBox="0 0 505 760" fill="none" xmlns="http://www.w3.org/2000/svg">
<circle cx="251.73" cy="253.144" r="89" transform="rotate(-45 251.73 253.144)" fill="#D9D9D9"/>
<circle cx="379.009" cy="377.595" r="89" transform="rotate(-45 379.009 377.595)" fill="#188906"/>
<circle cx="379.009" cy="125.865" r="89" transform="rotate(-45 379.009 125.865)" fill="#188906"/>
<circle cx="125.865" cy="379.009" r="89" transform="rotate(-45 125.865 379.009)" fill="#188906"/>
<circle cx="125.865" cy="127.279" r="89" transform="rotate(-45 125.865 127.279)" fill="#188906"/>
<rect x="228" y="336" width="49.1026" height="423.436" fill="#A8776C"/>
<path d="M442.38 73C442.38 67.4771 437.903 63 432.38 63L342.38 63C336.857 63 332.38 67.4771 332.38 73C332.38 78.5228 336.857 83 342.38 83H422.38V163C422.38 168.523 426.857 173 432.38 173C437.903 173 442.38 168.523 442.38 163V73ZM259.071 260.451L439.451 80.0711L425.309 65.9289L244.929 246.309L259.071 260.451Z" fill="#D9D9D9" fill-opacity="0.2"/>
<path d="M432.38 436.38C437.903 436.38 442.38 431.903 442.38 426.38V336.38C442.38 330.857 437.903 326.38 432.38 326.38C426.857 326.38 422.38 330.857 422.38 336.38V416.38H342.38C336.857 416.38 332.38 420.857 332.38 426.38C332.38 431.903 336.857 436.38 342.38 436.38H432.38ZM244.929 253.071L425.309 433.451L439.451 419.309L259.071 238.929L244.929 253.071Z" fill="#D9D9D9" fill-opacity="0.2"/>
<g filter="url(#filter0_f_5_21)">
<path d="M63 426.38C63 431.903 67.4771 436.38 73 436.38H163C168.523 436.38 173 431.903 173 426.38C173 420.857 168.523 416.38 163 416.38H83V336.38C83 330.857 78.5228 326.38 73 326.38C67.4771 326.38 63 330.857 63 336.38L63 426.38ZM246.309 238.929L65.9289 419.309L80.071 433.451L260.451 253.071L246.309 238.929Z" fill="#D9D9D9" fill-opacity="0.1"/>
</g>
<path d="M73 62C67.4771 62 63 66.4771 63 72L63 162C63 167.523 67.4771 172 73 172C78.5228 172 83 167.523 83 162V82H163C168.523 82 173 77.5228 173 72C173 66.4771 168.523 62 163 62L73 62ZM260.451 245.309L80.071 64.9289L65.9289 79.0711L246.309 259.451L260.451 245.309Z" fill="#D9D9D9" fill-opacity="0.2"/>
<defs>
<filter x="59" y="234.929" width="205.451" height="205.451" filterUnits="userSpaceOnUse" color-interpolation-filters="sRGB">
<feFlood flood-opacity="0" result="BackgroundImageFix"/>
<feBlend mode="normal" in="SourceGraphic" in2="BackgroundImageFix" result="shape"/>
<feGaussianBlur stdDeviation="2" result="effect1_foregroundBlur_5_21"/>
</filter>
</defs>
</svg>
